<?xml version="1.0" encoding="utf-8"?>
<!-- Generator: Adobe Illustrator 24.0.1, SVG Export Plug-In . SVG Version: 6.00 Build 0)  -->
<svg version="1.1" id="Layer_1" xmlns="http://www.w3.org/2000/svg" xmlns:xlink="http://www.w3.org/1999/xlink" x="0px" y="0px"
	 viewBox="0 0 329.1 80.93" style="enable-background:new 0 0 329.1 80.93;" xml:space="preserve">
<style type="text/css">
	.st0{fill:#212121;}
</style>
<g>
	<path class="st0" d="M40.77,35.89h39.55c0,4.07-0.17,7.76-0.51,11.08c-0.34,3.32-1.02,6.41-2.03,9.25c-1.42,4-3.36,7.54-5.8,10.63
		c-2.44,3.08-5.3,5.66-8.59,7.73c-3.29,2.07-6.9,3.65-10.83,4.73c-3.93,1.08-8.07,1.63-12.41,1.63c-5.97,0-11.41-0.98-16.32-2.95
		c-4.92-1.96-9.14-4.73-12.66-8.29c-3.53-3.56-6.27-7.83-8.24-12.81C0.98,51.91,0,46.4,0,40.37c0-5.96,0.97-11.44,2.9-16.42
		c1.93-4.98,4.68-9.23,8.24-12.76C14.69,7.66,18.98,4.92,24,2.95C29.01,0.98,34.6,0,40.77,0c8,0,15.01,1.73,21.05,5.19
		C67.85,8.64,72.63,14,76.16,21.25l-18.91,7.83c-1.76-4.2-4.05-7.22-6.86-9.05c-2.81-1.83-6.02-2.74-9.61-2.74
		c-2.98,0-5.69,0.56-8.13,1.68c-2.44,1.12-4.53,2.71-6.25,4.78c-1.73,2.07-3.08,4.56-4.07,7.47c-0.98,2.91-1.47,6.17-1.47,9.76
		c0,3.25,0.42,6.27,1.27,9.05c0.85,2.78,2.12,5.19,3.81,7.22c1.69,2.03,3.8,3.61,6.3,4.73c2.51,1.12,5.42,1.68,8.74,1.68
		c1.97,0,3.86-0.22,5.69-0.66c1.83-0.44,3.47-1.15,4.93-2.14c1.46-0.98,2.66-2.25,3.61-3.81c0.95-1.56,1.59-3.46,1.93-5.69H40.77
		V35.89z"/>
	<path class="st0" d="M90.48,2.13h29.49c5.22,0,10.12,1.05,14.69,3.15c4.58,2.1,8.57,4.9,12,8.39c3.42,3.49,6.12,7.56,8.08,12.2
		c1.96,4.64,2.95,9.51,2.95,14.59c0,5.02-0.97,9.85-2.9,14.49c-1.93,4.64-4.61,8.73-8.03,12.25c-3.42,3.53-7.42,6.34-12,8.44
		c-4.58,2.1-9.51,3.15-14.79,3.15H90.48V2.13z M110.41,61.92h4.58c3.46,0,6.54-0.54,9.25-1.63c2.71-1.08,5-2.58,6.86-4.47
		c1.86-1.9,3.29-4.15,4.27-6.76c0.98-2.61,1.47-5.47,1.47-8.59c0-3.05-0.51-5.9-1.52-8.54s-2.46-4.91-4.32-6.81
		c-1.87-1.9-4.15-3.39-6.86-4.47c-2.71-1.08-5.76-1.63-9.15-1.63h-4.58V61.92z"/>
	<path class="st0" d="M187.87,2.13v59.79h23.89V78.8h-43.82V2.13H187.87z"/>
	<path class="st0" d="M264.66,2.13v53.18c0,2.24-0.12,4.31-0.36,6.2c-0.24,1.9-0.63,3.52-1.17,4.88c-0.88,2.17-2.08,4.15-3.61,5.95
		c-1.52,1.8-3.3,3.32-5.34,4.58c-2.03,1.25-4.29,2.24-6.76,2.95c-2.47,0.71-5.07,1.07-7.78,1.07c-8.2,0-14.88-3.76-20.03-11.29
		l13.02-13.32c0.34,2.31,1.08,4.14,2.24,5.49c1.15,1.36,2.57,2.03,4.27,2.03c3.73,0,5.59-2.95,5.59-8.85V2.13H264.66z"/>
	<path class="st0" d="M318.02,21.76c-2.17-1.76-4.34-3.07-6.51-3.91c-2.17-0.85-4.27-1.27-6.3-1.27c-2.58,0-4.68,0.61-6.3,1.83
		c-1.63,1.22-2.44,2.81-2.44,4.78c0,1.36,0.41,2.47,1.22,3.36c0.81,0.88,1.88,1.64,3.2,2.29c1.32,0.65,2.81,1.2,4.47,1.68
		c1.66,0.48,3.3,0.98,4.93,1.53c6.51,2.17,11.27,5.07,14.29,8.69c3.02,3.63,4.52,8.36,4.52,14.18c0,3.93-0.66,7.49-1.98,10.68
		c-1.32,3.19-3.25,5.91-5.8,8.18c-2.54,2.27-5.66,4.03-9.35,5.29c-3.69,1.25-7.88,1.88-12.56,1.88c-9.69,0-18.68-2.88-26.95-8.64
		l8.54-16.06c2.98,2.64,5.93,4.61,8.85,5.9c2.91,1.29,5.8,1.93,8.64,1.93c3.25,0,5.68-0.74,7.27-2.24c1.59-1.49,2.39-3.19,2.39-5.08
		c0-1.15-0.2-2.15-0.61-3c-0.41-0.85-1.08-1.63-2.03-2.34c-0.95-0.71-2.19-1.37-3.71-1.98c-1.52-0.61-3.37-1.29-5.54-2.03
		c-2.58-0.81-5.1-1.71-7.58-2.69c-2.47-0.98-4.68-2.29-6.61-3.92c-1.93-1.63-3.49-3.68-4.68-6.15c-1.19-2.47-1.78-5.61-1.78-9.4
		c0-3.8,0.63-7.24,1.88-10.32c1.25-3.08,3.02-5.73,5.29-7.93c2.27-2.2,5.05-3.92,8.34-5.13C294.41,0.61,298.09,0,302.16,0
		c3.8,0,7.76,0.53,11.9,1.58c4.13,1.05,8.1,2.59,11.9,4.63L318.02,21.76z"/>
</g>
</svg>
